<?xml version="1.0" encoding="UTF-8"?>
<svg id="Lag_2" xmlns="http://www.w3.org/2000/svg" viewBox="0 0 500 500">
	<defs>
		<style>
			.cls-1{fill:#1d1f20;}.cls-2{fill:#0dfdb1;}
		</style>
	</defs>
	<g id="Lag_1-2">
		<rect class="cls-1" width="500" height="500" />
		<path class="cls-2" d="M195.73,403.36l6.86-6.86c0,3.86-3,6.86-6.86,6.86h-52.76c-3.86,0-7.29-3-7.29-6.86V103.5c0-3.86,3-6.86,6.86-6.86h58.77c3.86,0,6.86,3,6.86,6.86v107.24c13.73-15.01,32.6-22.74,58.34-22.74,57.91,0,97.81,48.47,97.81,110.25s-40.14,105.1-98.06,105.1h-70.53Zm54.48-60.06c24.88,0,43.76-17.59,43.76-45.04s-18.88-45.04-43.76-45.04-42.9,17.59-42.9,44.61,17.59,45.47,42.9,45.47Z" />
	</g>
</svg>
