<?xml version="1.0" encoding="UTF-8"?>
<svg id="Lag_2" xmlns="http://www.w3.org/2000/svg" viewBox="0 0 432.48 110.97">
	<defs>
		<style>
			.cls-1{fill:#fff;}.cls-2{fill:#0dfdb1;}
		</style>
	</defs>
	<g id="Lag_1-2">
		<g>
			<path class="cls-2" d="M20.66,109.2l2.36-2.36c0,1.33-1.03,2.36-2.36,2.36H2.51c-1.33,0-2.51-1.03-2.51-2.36V6.05c0-1.33,1.03-2.36,2.36-2.36H22.58c1.33,0,2.36,1.03,2.36,2.36V42.94c4.72-5.17,11.22-7.82,20.07-7.82,19.92,0,33.65,16.68,33.65,37.92s-13.81,36.15-33.73,36.15H20.66Zm18.74-20.66c8.56,0,15.05-6.05,15.05-15.49s-6.49-15.49-15.05-15.49-14.76,6.05-14.76,15.35,6.05,15.64,14.76,15.64Z" />
			<path class="cls-1" d="M85.87,13.28c0-7.38,5.61-13.28,13.43-13.28s13.43,5.9,13.43,13.28-5.75,13.43-13.43,13.43-13.43-5.9-13.43-13.43Zm.89,25.97c0-1.33,1.03-2.36,2.36-2.36h20.36c1.33,0,2.36,1.03,2.36,2.36V106.84c0,1.33-1.03,2.36-2.36,2.36h-20.36c-1.33,0-2.36-1.03-2.36-2.36V39.25Z" />
			<path class="cls-1" d="M119.84,106.84V39.25c0-1.33,1.03-2.36,2.36-2.36h19.48c1.18,0,2.21,.59,2.21,2.51l.59,7.23c4.13-6.79,10.77-11.51,20.22-11.51,8.85,0,15.94,4.28,20.07,12.1,4.28-7.08,11.51-12.1,22.13-12.1,15.79,0,25.53,11.07,25.53,29.96v41.76c0,1.33-1.03,2.36-2.36,2.36h-20.07c-1.33,0-2.36-1.03-2.36-2.36v-35.86c0-8.71-2.95-13.13-9.59-13.13s-9.59,4.43-9.59,13.13v35.86c0,1.33-1.03,2.36-2.36,2.36h-19.77c-1.62,0-2.66-1.03-2.66-2.36v-35.86c0-8.71-2.8-13.13-9.44-13.13-6.2,0-9.59,4.43-9.59,13.13v35.86c0,1.33-1.03,2.36-2.36,2.36h-20.07c-1.33,0-2.36-1.03-2.36-2.36Z" />
			<path class="cls-1" d="M261.1,109.2l2.36-2.36c0,1.33-1.03,2.36-2.36,2.36h-18.15c-1.33,0-2.51-1.03-2.51-2.36V6.05c0-1.33,1.03-2.36,2.36-2.36h20.22c1.33,0,2.36,1.03,2.36,2.36V42.94c4.72-5.17,11.21-7.82,20.07-7.82,19.92,0,33.65,16.68,33.65,37.92s-13.94,36.15-33.86,36.15h-24.13Zm18.74-20.66c8.56,0,15.05-6.05,15.05-15.49s-6.49-15.49-15.05-15.49-14.76,6.05-14.76,15.35,6.05,15.64,14.76,15.64Z" />
			<path class="cls-1" d="M327.09,106.84V6.05c0-1.33,1.03-2.36,2.36-2.36h20.22c1.33,0,2.36,1.03,2.36,2.36V106.84c0,1.33-1.03,2.36-2.36,2.36h-20.22c-1.33,0-2.36-1.03-2.36-2.36Z" />
			<path class="cls-1" d="M360.03,72.75c0-21.25,14.9-37.63,37.48-37.63s34.97,16.08,34.97,34.68c0,7.82-1.92,12.69-9.15,12.69h-39.11c2.66,6.64,9,9.15,18,9.15,4.13,0,8.85-.15,14.9-3.39,1.18-.59,1.92-.3,2.66,.89l6.79,9.44c.59,.89,.74,2.07-.74,3.39-6.05,6.2-15.35,9-25.68,9-23.76,0-40.14-15.94-40.14-38.22Zm50.47-7.23c-1.48-7.67-6.79-10.18-12.84-10.18-6.35,0-11.95,2.8-13.87,10.18h26.71Z" />
		</g>
	</g>
</svg>
